<svg xmlns="http://www.w3.org/2000/svg" width="50" viewBox="0 0 37.5 37.5" height="50" version="1.0"><defs><clipPath id="a"><path d="M.598.598h36v36h-36zm0 0"/></clipPath></defs><path fill="#21759b" d="M3.156 18.594c0 6.113 3.551 11.394 8.703 13.898l-7.367-20.18a15.382 15.382 0 0 0-1.336 6.282zM29.02 17.816c0-1.91-.684-3.23-1.274-4.257-.781-1.274-1.516-2.352-1.516-3.621 0-1.422 1.079-2.743 2.594-2.743.067 0 .133.008.2.012a15.383 15.383 0 0 0-10.426-4.05c-5.395 0-10.141 2.765-12.903 6.956.364.012.703.02.992.02 1.618 0 4.118-.195 4.118-.195.832-.051.93 1.171.097 1.273 0 0-.836.098-1.765.144l5.62 16.727 3.38-10.137-2.407-6.59c-.828-.046-1.617-.148-1.617-.148-.832-.047-.734-1.32.098-1.27 0 0 2.55.196 4.066.196 1.614 0 4.118-.195 4.118-.195.832-.051.93 1.171.097 1.269 0 0-.84.102-1.77.148l5.583 16.598 1.539-5.144c.668-2.137 1.176-3.672 1.176-4.993zm0 0"/><path fill="#21759b" d="M18.867 19.945 14.234 33.41a15.462 15.462 0 0 0 9.489-.246 1.58 1.58 0 0 1-.11-.215zM32.145 11.188c.066.492.105 1.019.105 1.585 0 1.567-.293 3.329-1.176 5.532L26.36 31.94c4.59-2.675 7.68-7.648 7.68-13.347 0-2.684-.687-5.207-1.894-7.407zm0 0"/><g clip-path="url(#a)"><path fill="#21759b" d="M18.598.598c-9.926 0-18 8.074-18 17.996 0 9.93 8.074 18.004 18 18.004 9.922 0 18-8.075 18-18.004 0-9.922-8.078-17.996-18-17.996zm0 35.172c-9.473 0-17.176-7.704-17.176-17.176 0-9.469 7.703-17.172 17.176-17.172 9.468 0 17.172 7.703 17.172 17.172 0 9.472-7.704 17.176-17.172 17.176zm0 0"/></g></svg>