<svg xmlns="http://www.w3.org/2000/svg" width="50" viewBox="0 0 37.5 37.5" height="50" version="1.0"><defs><clipPath id="a"><path d="M6.242 8h25.5v29.008h-25.5zm0 0"/></clipPath><clipPath id="b"><path d="M8 1.492h6V7H8zm0 0"/></clipPath><clipPath id="c"><path d="M14 1.492h5V7h-5zm0 0"/></clipPath><clipPath id="d"><path d="M19 1.492h6V7h-6zm0 0"/></clipPath><clipPath id="e"><path d="M25 1.492h5V7h-5zm0 0"/></clipPath></defs><g clip-path="url(#a)"><path fill="#e44d26" d="m31.738 8.566-2.32 26.028-10.438 2.894-10.402-2.89-2.32-26.032zm0 0"/></g><path fill="#f16529" d="m18.996 35.277 8.434-2.34 1.984-22.242H18.996zm0 0"/><path fill="#ebebeb" d="M14.484 17.078h4.512v-3.191H11l.074.855.785 8.801h7.137v-3.195h-4.219zM15.203 25.137h-3.2l.446 5.015 6.535 1.817.012-.004V28.64l-.012.004-3.554-.961zm0 0"/><g clip-path="url(#b)"><path d="M8.629 1.492h1.621v1.602h1.48V1.492h1.622v4.852H11.73V4.719h-1.48v1.625H8.629zm0 0"/></g><g clip-path="url(#c)"><path d="M15.484 3.102H14.06v-1.61h4.476v1.61h-1.43v3.242h-1.62zm0 0"/></g><g clip-path="url(#d)"><path d="M19.246 1.492h1.688l1.039 1.703 1.039-1.703h1.691v4.852H23.09V3.937l-1.117 1.727h-.028l-1.113-1.726v2.406h-1.586zm0 0"/></g><g clip-path="url(#e)"><path d="M25.512 1.492h1.62v3.25h2.282v1.602h-3.902zm0 0"/></g><path fill="#fff" d="M18.988 23.543h3.926l-.371 4.14-3.555.962v3.32l6.54-1.813.046-.539.75-8.406.078-.86h-7.414zM18.988 17.07v.008h7.703l.063-.715.148-1.62.075-.856h-7.989zm0 0"/></svg>