<svg xmlns="http://www.w3.org/2000/svg" width="50" viewBox="0 0 37.5 37.5" height="50" version="1.0"><defs><clipPath id="a"><path d="M.27 2H37v34H.27zm0 0"/></clipPath></defs><g clip-path="url(#a)"><path fill="#00d8ff" d="M30.46 13.07a22.042 22.042 0 0 0-1.179-.375c.067-.277.13-.55.18-.816.894-4.402.312-7.945-1.684-9.113-1.914-1.121-5.043.046-8.203 2.836-.304.27-.61.554-.914.851a26.52 26.52 0 0 0-.605-.57c-3.313-2.985-6.633-4.238-8.63-3.07-1.91 1.124-2.476 4.457-1.671 8.624.078.407.168.817.27 1.235a23.03 23.03 0 0 0-1.356.433C2.785 14.477.305 16.63.305 18.863c0 2.305 2.664 4.617 6.707 6.02.32.11.648.215.992.312a23.46 23.46 0 0 0-.29 1.332c-.765 4.098-.167 7.352 1.74 8.465 1.968 1.153 5.273-.031 8.491-2.887a18.3 18.3 0 0 0 .766-.714c.332.324.664.632.992.918 3.117 2.722 6.195 3.82 8.098 2.703 1.969-1.157 2.61-4.653 1.777-8.907a20.792 20.792 0 0 0-.219-.992c.23-.07.461-.144.684-.218 4.203-1.415 6.937-3.696 6.937-6.032 0-2.242-2.558-4.406-6.52-5.793zm-.913 10.317c-.2.066-.406.133-.613.195a37.342 37.342 0 0 0-1.86-4.71c.73-1.602 1.336-3.165 1.785-4.645.375.109.739.226 1.09.347 3.395 1.188 5.465 2.938 5.465 4.29 0 1.437-2.234 3.304-5.867 4.523zm-1.504 3.027c.367 1.883.418 3.582.176 4.91-.219 1.196-.66 1.992-1.203 2.309-1.157.68-3.625-.203-6.29-2.528-.308-.27-.617-.554-.925-.855 1.035-1.145 2.066-2.477 3.074-3.957 1.773-.16 3.45-.422 4.969-.777.074.304.14.605.199.898zm-15.234 7.102c-1.13.406-2.028.418-2.57.101-1.157-.68-1.641-3.293-.985-6.797.078-.398.164-.812.27-1.234 1.5.34 3.164.582 4.94.727a38.507 38.507 0 0 0 3.15 3.945c-.235.23-.466.445-.7.652-1.422 1.262-2.848 2.156-4.105 2.606zm-5.29-10.137c-1.789-.621-3.265-1.426-4.277-2.305-.91-.789-1.37-1.574-1.37-2.21 0-1.356 1.991-3.083 5.312-4.259a19.96 19.96 0 0 1 1.261-.402 38.686 38.686 0 0 0 1.79 4.695 38.766 38.766 0 0 0-1.81 4.77 20.705 20.705 0 0 1-.905-.29zm1.774-12.246c-.691-3.57-.23-6.266.918-6.945 1.23-.72 3.941.308 6.8 2.882.184.164.368.34.552.516a38.348 38.348 0 0 0-3.125 3.922 37.75 37.75 0 0 0-4.895.773 23.52 23.52 0 0 1-.25-1.148zm15.82 3.965a53.39 53.39 0 0 0-1.117-1.864 35.07 35.07 0 0 1 3.344.594 32.981 32.981 0 0 1-1.172 3.203 52.93 52.93 0 0 0-1.055-1.933zM18.66 8.723c.723.793 1.45 1.68 2.16 2.644a44.56 44.56 0 0 0-4.336-.004 34.698 34.698 0 0 1 2.176-2.64zm-6.492 6.386a45.84 45.84 0 0 0-1.035 1.922 34.368 34.368 0 0 1-1.164-3.218 33.553 33.553 0 0 1 3.324-.579c-.387.61-.762 1.235-1.125 1.871zm1.156 9.496c-1.199-.136-2.332-.32-3.379-.55a36.213 36.213 0 0 1 1.188-3.285 48.457 48.457 0 0 0 2.191 3.836zm5.38 4.508a36.063 36.063 0 0 1-2.208-2.68 51.498 51.498 0 0 0 4.36-.004c-.711.981-1.434 1.883-2.153 2.684zm7.48-8.402c.488 1.137.902 2.23 1.23 3.273-1.062.246-2.21.446-3.422.594.383-.613.758-1.246 1.125-1.894.375-.657.73-1.317 1.067-1.973zm-2.422 1.18A53.51 53.51 0 0 1 22 24.77a50.558 50.558 0 0 1-6.676.012 42.813 42.813 0 0 1-1.793-2.884c-.57-.996-1.094-2-1.566-3 .473-.996.996-2.003 1.562-2.996h-.004a44.056 44.056 0 0 1 1.782-2.87 42.555 42.555 0 0 1 3.34-.13c1.136 0 2.253.043 3.343.13.61.905 1.2 1.863 1.77 2.863a51.656 51.656 0 0 1 1.578 2.984 49.58 49.58 0 0 1-1.574 3.012zm3.23-17.75c1.23.718 1.707 3.617.934 7.414-.047.246-.102.492-.164.742a36.967 36.967 0 0 0-4.903-.785c-1.007-1.457-2.05-2.782-3.101-3.926.281-.277.566-.54.844-.785 2.707-2.39 5.238-3.336 6.39-2.66zm-8.347 11.398c1.808 0 3.273 1.488 3.273 3.324 0 1.832-1.465 3.32-3.273 3.32-1.81 0-3.278-1.488-3.278-3.32 0-1.836 1.469-3.324 3.278-3.324zm0 0"/></g></svg>