<svg xmlns="http://www.w3.org/2000/svg" width="120" viewBox="0 0 90 30" height="40" version="1.0"><path fill="#131b28" d="m38.223 12.09-.532 1.894zm2.73 4.12-.586-.003zm-.144 2.837-3.508.012zm.734-2.832-.586-.004zm-.426 2.59.613-2.348zM54.031 7.992l-1.136 5.395zm-2.926-.008-.863 4.032zM53.828 7.742h-2.433c-.137 0-.27.11-.297.242l-1.73 8.063a.317.317 0 0 1-.298.242h-1.722c-1.703 0-1.504-1.187-1.149-2.816l.008-.051.207-1.11.09-.457.785-3.87c.027-.133-.059-.243-.195-.243h-2.496c-.16.004-.262.086-.297.242l-1.14 5.38c-.618 2.85-.454 5.566 2.905 5.652h5.375c.137 0 .27-.11.297-.243L54.016 7.98c.027-.132-.059-.242-.196-.242zm9.7 8.574c.136 0 .218.11.199.243l-.239 1.164m-.23 1.164.238-1.164zm-.285.246-4.485.023zm0 0"/><path fill="#131b28" d="M57.027 14.816c0-.129.141-.347.278-.347L57 14.465c-.145 1.387.027.351.027.351zm1.672 4.336h-.043zm4.828-2.828c.137 0 .22.11.2.242l-.27 1.348m-3.605 1.238h-.008zm-.598 0h-.031zm-.18 0h-.058zm-.187 0h-.051zm.336 0h-.149zM59.844 19.152h-.586zm3.12-.02-3.112.02zm.29-.241.2-.977zm-4.242.261h-.13zm-.367.004h-.172zm.183-.004h-.144zM23.23 14.844l.38-1.688-.434 1.93-.047.242zm4.528-7.13h-2.672c-.16.005-.262.087-.3.243l-.509 2.25a.166.166 0 0 0 .035.168.16.16 0 0 0 .157.07h2.695c.133 0 .27-.105.297-.238l.488-2.258c.031-.133-.058-.242-.195-.242zm-.578 3.75-.79 3.657zm-7.762 12.118 2.203.016c-.648 0-1.723-.012-2.203-.016zm0 0"/><path fill="#131b28" d="m23.996 11.465-.379 1.691zm2.992-.242h-2.687c-.156.007-.258.086-.297.242l-.758 3.379-.105.484-.72 3.45c-.034.163-.077.32-.128.476 0 0-.504 1.512-1.352 1.496l-.836-.016c-.16.004-.257.082-.304.235l-.559 2.367a.192.192 0 0 0 .031.172c.043.05.094.074.16.074l2.204.016c2.113 0 3.226-1.18 3.941-4.578l1.621-7.547a.194.194 0 0 0-.195-.243zm38.262 7.793c-.133 0-.215-.11-.191-.243l2.027-9.57m.98 9.57.82-4.085zm0 0"/><path fill="#131b28" d="M65.086 18.895a1.129 1.129 0 0 1 .023-.364l.961-4.543-1.011 4.785a.19.19 0 0 0 .191.243h.246c-.133 0-.394-.055-.41-.121zm2.824.066a1.245 1.245 0 0 1-.383.055h.246c.16-.004.258-.086.297-.243l.047-.242c-.023.133-.14.403-.215.43zm.57-2.23.36-1.801zm7.993-6.887.113.465c.031.132-.055.242-.191.242M68.117 18.531l.36-1.8zm8.246-9.164.11.477zM68.84 14.93l.101-.48.387-1.829-.437 2.07zm-1.723-5.883-.086.398-.96 4.543 1.015-4.785zm0 0"/><path fill="#131b28" d="m76.586 10.309-.113-.465-.164-.727c-.22-.855-.86-1.351-2.254-1.351l-6.422-.004c-.16.008-.258.086-.297.242l-.098.476-.144.715-1.977 9.328c-.027.133-.039.29-.02.364.016.074.274.12.41.12h2.028c.137 0 .309-.023.383-.054.074-.027.18-.289.215-.43l.77-3.843.824-3.895a.313.313 0 0 1 .296-.238l6.387-.004c.133 0 .219-.11.188-.242zm8.223-4.204h-2.54a.507.507 0 0 0-.382.207l-4.52 6.676c-.078.114-.164.098-.195-.035l-.332-1.473c-.043-.156-.14-.234-.3-.242h-2.907c-.133 0-.215.11-.176.239l1.293 4.601c.04.129.04.344.008.477l-.574 2.226a.17.17 0 0 0 .027.172c.039.05.09.074.156.07h2.88c.136 0 .273-.109.308-.242l.574-2.222c.047-.16.113-.305.207-.442l7.34-9.82c.082-.11.039-.195-.098-.195zm-23.09 5.762a.296.296 0 0 1-.285.254h-3.688c-.125 0-.191-.09-.172-.2l.004-.019.016-.062c.36-.942 1.07-1.563 2.414-1.563 1.52 0 1.812.75 1.71 1.59zM60.64 7.578c-4.73 0-5.852 2.895-6.477 5.817-.629 2.976-.574 5.761 4.316 5.761h.778l.597-.004 3.114-.015c.156-.008.254-.09.293-.246l.472-2.328c.028-.137-.062-.247-.195-.247h-4.398c-1.75 0-2.27-.468-2.078-1.843h7.03a.283.283 0 0 0 .259-.184.384.384 0 0 0 .02-.062c1.042-3.97.741-6.645-3.731-6.645zm-22.352 4.274-.066.234c0 .004-.532 1.898-.532 1.898l-.53 1.899a.321.321 0 0 1-.313.238h-2.813c-2.133 0-2.648-1.68-2.133-4.16.52-2.54 1.54-4.113 3.637-4.274 2.867-.218 3.441 1.817 2.75 4.16zm1.926 4.125s1.324-3.247 1.625-5.122c.41-2.507-.832-6.144-5.645-6.144-4.785 0-6.863 3.473-7.652 7.258-.793 3.8.246 7.136 5 7.113l7.262-.027c.156-.008.258-.09.304-.242l.614-2.352a.174.174 0 0 0-.028-.168.167.167 0 0 0-.156-.07h-1.172c-.113 0-.18-.078-.168-.176.004-.016.008-.035.016-.055zm0 0"/><path fill="#131b28" d="M63.895 13.805c0 .09-.07.164-.16.164a.162.162 0 0 1-.16-.164c0-.09.07-.164.16-.164s.16.074.16.164zm0 0"/><path fill="#0868ac" d="M3.688 9.586c-1.32 1.914-1.157 4.406-.149 6.437l.074.149.047.09.027.054.055.094.098.164.055.094.109.176.047.074.164.234.031.043.149.2.054.07.145.172.05.062.192.219.012.012.191.207.063.062.152.145.062.058.211.196.043.035.192.164.07.062.16.125.086.075.18.128.086.063.172.113.078.051.273.168.074.047.207.113.114.059.144.078.035.016.059.03.234.106.047.024.274.113.066.027.254.094.031.012.285.094.07.023.29.082c6.386 1.176 8.242-3.871 8.242-3.871-1.559 2.047-4.316 2.586-6.945 1.988a4.146 4.146 0 0 1-.293-.086l-.07-.02-.282-.093-.039-.016c-.082-.027-.164-.058-.25-.09l-.066-.027c-.094-.039-.18-.074-.27-.113l-.055-.024-.226-.105-.07-.035a3.735 3.735 0 0 1-.176-.09l-.117-.059c-.07-.039-.141-.078-.207-.12l-.07-.04a6.39 6.39 0 0 1-.274-.168c-.028-.015-.051-.035-.074-.05l-.196-.13-.062-.042-.184-.137-.082-.059-.164-.133-.074-.058-.207-.176c-.008-.008-.016-.012-.024-.02-.07-.07-.144-.132-.214-.199l-.063-.058-.156-.153-.063-.062-.191-.203c-.066-.078-.137-.156-.203-.235l-.051-.062-.137-.172-.05-.074-.165-.215c-1.445-1.996-1.968-4.758-.796-7.027m3.066-.293c-.953 1.379-.902 3.242-.156 4.707.125.246.265.484.422.71.144.208.3.454.492.622l.21.218.06.055.218.203.012.012.254.21.058.048.266.195.187.129.2.121.027.016.176.101.187.094.016.012.258.117.054.023.215.086.09.036.195.066.086.031c.09.027.184.07.278.078 4.933.825 6.07-3.004 6.07-3.004-1.023 1.493-3.012 2.204-5.133 1.649l-.281-.082-.082-.028-.195-.066-.09-.035-.211-.086-.055-.024-.258-.12-.129-.07-.074-.04-.203-.117-.2-.121-.183-.125-.27-.2-.058-.046c-.934-.739-1.664-1.743-2.016-2.895-.359-1.187-.289-2.52.348-3.601m2.656-.082c-.562.832-.617 1.87-.226 2.796.41.977 1.258 1.739 2.242 2.102l.121.047.055.015.176.051c2.722.531 3.453-1.41 3.656-1.695-.645.941-1.727 1.164-3.067.84a4.154 4.154 0 0 1-.707-.262 3.698 3.698 0 0 1-.672-.414c-1.195-.914-1.945-2.656-1.16-4.074"/></svg>