<svg xmlns="http://www.w3.org/2000/svg" xmlns:xlink="http://www.w3.org/1999/xlink" width="120" zoomAndPan="magnify" viewBox="0 0 90 30.000001" height="40" preserveAspectRatio="xMidYMid meet" version="1.0"><defs><g/><clipPath id="acfa99f9ee"><path d="M 2.175781 12 L 12 12 L 12 23.796875 L 2.175781 23.796875 Z M 2.175781 12 " clip-rule="nonzero"/></clipPath><clipPath id="31da459240"><path d="M 8.433594 12.535156 C 8.121094 12.199219 7.632812 12.21875 7.417969 12.644531 L 2.273438 22.894531 C 2.179688 23.082031 2.191406 23.308594 2.300781 23.488281 C 2.414062 23.667969 2.613281 23.777344 2.824219 23.777344 L 9.988281 23.777344 C 10.222656 23.785156 10.4375 23.652344 10.539062 23.441406 C 12.082031 20.257812 11.148438 15.421875 8.433594 12.535156 Z M 8.433594 12.535156 " clip-rule="nonzero"/></clipPath><clipPath id="33f38b270c"><path d="M 10 2.75 L 23.226562 2.75 L 23.226562 23.796875 L 10 23.796875 Z M 10 2.75 " clip-rule="nonzero"/></clipPath></defs><g fill="#ffffff" fill-opacity="1"><g transform="translate(23.799624, 24.16537)"><g><path d="M 4.375 -11.265625 C 4.664062 -12.078125 5.148438 -12.648438 5.828125 -12.984375 C 6.503906 -13.304688 7.507812 -13.46875 8.84375 -13.46875 L 8.84375 -9.796875 C 7.539062 -9.796875 6.453125 -9.347656 5.578125 -8.453125 C 4.773438 -7.671875 4.375 -6.804688 4.375 -5.859375 L 4.375 0 L 0.765625 0 L 0.765625 -13.234375 L 4.375 -13.234375 Z M 4.375 -11.265625 "/></g></g></g><g fill="#ffffff" fill-opacity="1"><g transform="translate(33.02526, 24.16537)"><g><path d="M 10.28125 -13.28125 L 13.875 -13.28125 L 13.875 0 L 10.28125 0 L 10.28125 -1.484375 C 9.539062 -0.523438 8.425781 -0.046875 6.9375 -0.046875 C 5.125 -0.0351562 3.566406 -0.671875 2.265625 -1.953125 C 0.960938 -3.234375 0.300781 -4.789062 0.28125 -6.625 C 0.257812 -8.445312 0.894531 -10.007812 2.1875 -11.3125 C 3.46875 -12.613281 5.023438 -13.269531 6.859375 -13.28125 C 8.367188 -13.28125 9.507812 -12.796875 10.28125 -11.828125 Z M 9.203125 -4.375 C 9.835938 -5.007812 10.15625 -5.78125 10.15625 -6.6875 C 10.15625 -7.613281 9.828125 -8.382812 9.171875 -9 C 8.523438 -9.644531 7.765625 -9.953125 6.890625 -9.921875 C 5.984375 -9.921875 5.210938 -9.601562 4.578125 -8.96875 C 3.941406 -8.332031 3.625 -7.5625 3.625 -6.65625 C 3.625 -5.769531 3.945312 -5 4.59375 -4.34375 C 5.226562 -3.707031 6.003906 -3.390625 6.921875 -3.390625 C 7.835938 -3.421875 8.597656 -3.75 9.203125 -4.375 Z M 9.203125 -4.375 "/></g></g></g><g fill="#ffffff" fill-opacity="1"><g transform="translate(47.673214, 24.16537)"><g><path d="M 8.09375 -14.34375 C 7.695312 -14.34375 7.363281 -14.207031 7.09375 -13.9375 C 6.820312 -13.644531 6.6875 -13.300781 6.6875 -12.90625 L 6.6875 -11.484375 L 9.328125 -11.484375 L 9.328125 -7.890625 L 6.6875 -7.890625 L 6.6875 0 L 3.078125 0 L 3.078125 -7.921875 L 0.765625 -7.921875 L 0.765625 -11.484375 L 3.078125 -11.484375 L 3.078125 -14.34375 C 3.078125 -15.332031 3.429688 -16.171875 4.140625 -16.859375 C 4.835938 -17.566406 5.6875 -17.921875 6.6875 -17.921875 L 9.328125 -17.921875 L 9.328125 -14.34375 Z M 8.09375 -14.34375 "/></g></g></g><g fill="#ffffff" fill-opacity="1"><g transform="translate(57.772595, 24.16537)"><g><path d="M 10.28125 -13.28125 L 13.875 -13.28125 L 13.875 0 L 10.28125 0 L 10.28125 -1.484375 C 9.539062 -0.523438 8.425781 -0.046875 6.9375 -0.046875 C 5.125 -0.0351562 3.566406 -0.671875 2.265625 -1.953125 C 0.960938 -3.234375 0.300781 -4.789062 0.28125 -6.625 C 0.257812 -8.445312 0.894531 -10.007812 2.1875 -11.3125 C 3.46875 -12.613281 5.023438 -13.269531 6.859375 -13.28125 C 8.367188 -13.28125 9.507812 -12.796875 10.28125 -11.828125 Z M 9.203125 -4.375 C 9.835938 -5.007812 10.15625 -5.78125 10.15625 -6.6875 C 10.15625 -7.613281 9.828125 -8.382812 9.171875 -9 C 8.523438 -9.644531 7.765625 -9.953125 6.890625 -9.921875 C 5.984375 -9.921875 5.210938 -9.601562 4.578125 -8.96875 C 3.941406 -8.332031 3.625 -7.5625 3.625 -6.65625 C 3.625 -5.769531 3.945312 -5 4.59375 -4.34375 C 5.226562 -3.707031 6.003906 -3.390625 6.921875 -3.390625 C 7.835938 -3.421875 8.597656 -3.75 9.203125 -4.375 Z M 9.203125 -4.375 "/></g></g></g><g fill="#ffffff" fill-opacity="1"><g transform="translate(72.420549, 24.16537)"><g><path d="M 10.3125 -13.234375 L 10.3125 -9.640625 L 7.34375 -9.640625 L 7.34375 0 L 3.75 0 L 3.75 -9.640625 L 0.765625 -9.640625 L 0.765625 -13.234375 L 3.75 -13.234375 L 3.75 -17.859375 L 7.34375 -17.859375 L 7.34375 -13.234375 Z M 10.3125 -13.234375 "/></g></g></g><g fill="#fed15c" fill-opacity="1"><g transform="translate(83.485864, 24.16537)"><g><path d="M 4.375 0 L 0.765625 0 L 0.765625 -3.59375 L 4.375 -3.59375 Z M 4.375 0 "/></g></g></g><g clip-path="url(#acfa99f9ee)"><g clip-path="url(#31da459240)"><path fill="#fed15c" d="M 2.179688 12.199219 L 2.179688 23.785156 L 12.082031 23.785156 L 12.082031 12.199219 Z M 2.179688 12.199219 " fill-opacity="1" fill-rule="nonzero"/></g></g><g clip-path="url(#33f38b270c)"><path fill="#fed15c" d="M 12.210938 3.210938 C 9.332031 7.753906 9.523438 12.78125 11.417969 16.558594 L 14.871094 23.441406 C 14.976562 23.648438 15.1875 23.78125 15.421875 23.78125 L 22.585938 23.78125 C 22.796875 23.78125 22.996094 23.667969 23.109375 23.488281 C 23.21875 23.308594 23.230469 23.082031 23.132812 22.890625 C 23.132812 22.890625 13.496094 3.6875 13.253906 3.207031 C 13.039062 2.777344 12.488281 2.773438 12.210938 3.210938 Z M 12.210938 3.210938 " fill-opacity="1" fill-rule="nonzero"/></g></svg>