<svg xmlns="http://www.w3.org/2000/svg" width="96" viewBox="0 0 72 60" height="80" version="1.0"><defs><clipPath id="a"><path d="M27 21h18v18H27zm0 0"/></clipPath><clipPath id="b"><path d="M36 21c-4.969 0-9 4.031-9 9s4.031 9 9 9 9-4.031 9-9-4.031-9-9-9"/></clipPath><clipPath id="c"><path d="M.508.766h71.25v58.5H.508zm0 0"/></clipPath><clipPath id="d"><path d="M.508.766h71.25V16H.508zm0 0"/></clipPath></defs><g clip-path="url(#a)"><g clip-path="url(#b)"><path fill="#1f2242" d="M27 21h18v18H27zm0 0"/></g></g><path d="M34.684 29.266a.311.311 0 0 1-.141-.032.21.21 0 0 1-.078-.093.36.36 0 0 1-.031-.157.32.32 0 0 1 .03-.156c.02-.039.048-.07.079-.094a.311.311 0 0 1 .14-.03c.051 0 .094.01.126.03a.27.27 0 0 1 .093.094.37.37 0 0 1 .032.156.429.429 0 0 1-.032.157.217.217 0 0 1-.093.093.237.237 0 0 1-.125.032zm0-.078c.05 0 .086-.016.109-.047.031-.032.047-.082.047-.157 0-.07-.016-.125-.047-.156a.12.12 0 0 0-.11-.062.152.152 0 0 0-.124.062c-.032.031-.047.086-.047.156 0 .075.015.125.047.157.03.03.07.047.125.047zM35.268 29.266a.282.282 0 0 1-.125-.032.21.21 0 0 1-.078-.093.584.584 0 0 1-.016-.157.32.32 0 0 1 .032-.156c.02-.039.046-.07.078-.094a.2.2 0 0 1 .11-.03c.038 0 .07.007.093.015a.17.17 0 0 1 .078.062h.016V28.5h.078v.75h-.078v-.078h-.016a.159.159 0 0 1-.063.062.21.21 0 0 1-.109.032zm.016-.078c.05 0 .093-.016.125-.047a.248.248 0 0 0 .047-.157c0-.07-.016-.125-.047-.156a.157.157 0 0 0-.125-.062c-.043 0-.078.023-.11.062-.03.031-.047.086-.047.156 0 .137.051.204.157.204zM36.143 29h-.375c0 .063.016.11.047.14.031.032.07.048.125.048.039 0 .07-.004.094-.016.02-.02.035-.04.047-.063h.015l.047.032a.238.238 0 0 1-.078.093.237.237 0 0 1-.125.032.311.311 0 0 1-.14-.032.21.21 0 0 1-.079-.093.31.31 0 0 1-.031-.157.32.32 0 0 1 .031-.156c.02-.039.047-.07.078-.094a.311.311 0 0 1 .14-.03c.063 0 .114.023.157.062.04.03.063.09.063.172V29zm-.062-.062a.277.277 0 0 0-.047-.125.111.111 0 0 0-.094-.047.165.165 0 0 0-.125.047c-.024.023-.04.062-.047.125zM36.34 28.61c-.023 0-.04-.005-.047-.016-.012-.008-.015-.024-.015-.047 0-.008.003-.02.015-.031.008-.008.024-.016.047-.016.008 0 .02.008.031.016.008.011.016.023.016.03 0 .024-.008.04-.016.048-.011.011-.023.015-.031.015zm-.047.64v-.531h.078v.531zM36.56 29.25v-.531h.077v.078h.016c.008-.031.031-.05.062-.063a.179.179 0 0 1 .094-.03c.07 0 .117.015.14.046.032.031.048.086.048.156v.344h-.078v-.344c0-.031-.008-.054-.016-.078 0-.02-.012-.035-.031-.047-.024-.008-.047-.015-.078-.015a.148.148 0 0 0-.11.047c-.031.03-.047.085-.047.156v.281zM37.364 29.484c-.086 0-.148-.015-.187-.046-.043-.032-.063-.07-.063-.11 0-.031.008-.058.032-.078a.11.11 0 0 1 .078-.031v-.016a.09.09 0 0 1-.047-.031v-.047c0-.02.004-.035.016-.047.007-.02.03-.031.062-.031v-.016c-.063-.031-.094-.082-.094-.156 0-.031.004-.055.016-.078a.152.152 0 0 1 .078-.063.21.21 0 0 1 .219 0c.008-.007.015-.02.015-.03.008-.02.016-.04.016-.063h.016l.062.015c0 .024-.012.043-.031.063a.091.091 0 0 1-.047.047v.015c.02.012.031.028.031.047.008.024.016.043.016.063a.179.179 0 0 1-.031.093.159.159 0 0 1-.063.063.263.263 0 0 1-.094.016h-.062c-.012 0-.024.007-.031.015-.012.012-.016.024-.016.031 0 .024.004.04.016.047h.047l.125.016c.062 0 .101.012.125.031.03.024.046.055.046.11a.116.116 0 0 1-.03.078.174.174 0 0 1-.095.062.237.237 0 0 1-.125.031zm0-.484a.1.1 0 0 0 .079-.031.11.11 0 0 0 .03-.078c0-.04-.011-.07-.03-.094a.116.116 0 0 0-.079-.031c-.043 0-.074.011-.093.03-.024.024-.032.056-.032.095 0 .03.008.058.032.078.02.023.05.031.093.031zm0 .406c.04 0 .07-.008.094-.015.02 0 .035-.012.047-.032.02-.011.031-.027.031-.046 0-.012-.008-.024-.015-.032l-.032-.031h-.046l-.125-.016h-.016c-.074 0-.11.024-.11.079 0 .062.055.093.172.093zm0 0" fill="#fff"/><g clip-path="url(#c)"><path fill="#e7f2ff" d="M71.648 7.582c0-3.773-3.07-6.832-6.855-6.832H7.465C3.675.75.609 3.809.609 7.582v44.824c0 3.774 3.067 6.832 6.856 6.832h57.328c3.785 0 6.855-3.058 6.855-6.832V7.582zm0 0" fill-rule="evenodd"/></g><g clip-path="url(#d)"><path fill="#84c9f2" d="M.61 15.176h71.038V7.582c0-3.773-3.07-6.832-6.855-6.832H7.465C3.675.75.609 3.809.609 7.582zm0 0" fill-rule="evenodd"/></g><path fill="#47556a" d="M26.145 4.879h-15.22a3.087 3.087 0 0 0-3.09 3.082c0 1.7 1.384 3.082 3.09 3.082h15.22a3.09 3.09 0 0 0 3.093-3.082 3.09 3.09 0 0 0-3.093-3.082zm0 0" fill-rule="evenodd"/><path fill="#f5536b" d="M46.477 7.96c0 .411-.079.802-.235 1.18-.156.38-.379.712-.668 1a3.094 3.094 0 0 1-2.187.903 3.094 3.094 0 0 1-2.188-.902 3.036 3.036 0 0 1-.668-1 3.07 3.07 0 0 1 .668-3.36 3.094 3.094 0 0 1 2.188-.902 3.094 3.094 0 0 1 2.188.902 3.077 3.077 0 0 1 .902 2.18zm0 0"/><path fill="#fed11d" d="M55.45 7.96c0 .411-.079.802-.235 1.18-.156.38-.38.712-.668 1a3.094 3.094 0 0 1-2.188.903 3.094 3.094 0 0 1-2.188-.902 3.036 3.036 0 0 1-.667-1 3.07 3.07 0 0 1 .668-3.36 3.094 3.094 0 0 1 2.187-.902 3.094 3.094 0 0 1 2.188.902 3.077 3.077 0 0 1 .902 2.18zm0 0"/><path fill="#8ac254" d="M64.422 7.96c0 .411-.078.802-.234 1.18-.157.38-.38.712-.668 1a3.094 3.094 0 0 1-2.188.903 3.094 3.094 0 0 1-2.188-.902 3.036 3.036 0 0 1-.667-1 3.07 3.07 0 0 1 .668-3.36 3.094 3.094 0 0 1 2.187-.902 3.094 3.094 0 0 1 2.188.902 3.077 3.077 0 0 1 .902 2.18zm0 0"/><path fill="#47556a" d="m36.285 26.27-5.789 18.972a2.853 2.853 0 0 0 1.906 3.559 2.865 2.865 0 0 0 3.57-1.899l5.79-18.972a2.853 2.853 0 0 0-1.907-3.559 2.86 2.86 0 0 0-3.57 1.899zM51.89 47.512l7.15-9.344a2.837 2.837 0 0 0 0-3.461l-7.15-9.34a2.869 2.869 0 0 0-4.011-.535 2.848 2.848 0 0 0-.54 3.996l5.825 7.61-5.824 7.613a2.848 2.848 0 0 0 .539 3.996 2.869 2.869 0 0 0 4.012-.535zM24.918 44.05l-5.824-7.612 5.824-7.61a2.848 2.848 0 0 0-.54-3.996 2.869 2.869 0 0 0-4.01.535l-7.15 9.34a2.837 2.837 0 0 0 0 3.461l7.15 9.344a2.869 2.869 0 0 0 4.01.535 2.848 2.848 0 0 0 .54-3.996zm0 0" fill-rule="evenodd"/></svg>