<svg xmlns="http://www.w3.org/2000/svg" width="96" viewBox="0 0 72 60" height="80" version="1.0"><defs><clipPath id="a"><path d="M60 30h12v12.793H60zm0 0"/></clipPath><clipPath id="b"><path d="M59 29h13v13.793H59zm0 0"/></clipPath><clipPath id="c"><path d="M42.914 12.793H69V42H42.914zm0 0"/></clipPath><clipPath id="d"><path d="M60 12.793h9V20h-9zm0 0"/></clipPath></defs><path fill="#e3e4e2" d="M45.172 70.691H26.8l.719-7.855.238-2.617.355-1.309H43.86l.356 1.309.242 2.617zm0 0"/><path fill="#b2b1b4" d="M44.457 62.836H27.52l.238-2.617.355-1.309H43.86l.356 1.309zm0 0"/><path fill="#e3e4e2" d="M3.184 0h65.605a3.9 3.9 0 0 1 1.504.3c.484.2.91.481 1.277.848.371.372.657.793.856 1.278.199.48.297.98.297 1.5v52.363a3.882 3.882 0 0 1-1.153 2.777 3.816 3.816 0 0 1-1.277.852c-.48.2-.984.3-1.504.3H3.184a3.886 3.886 0 0 1-1.504-.3c-.485-.2-.91-.48-1.278-.852a3.85 3.85 0 0 1-.855-1.273c-.2-.48-.3-.98-.3-1.504V3.926c0-.52.1-1.02.3-1.5.2-.485.484-.906.855-1.278A3.888 3.888 0 0 1 1.676.301C2.16.1 2.66 0 3.184 0zm0 0"/><path fill="#4e4e4f" d="M-.754 10.473h73.477v39.273H-.754zm0 0"/><path fill="#0093b9" d="M3.184 0h65.605a3.9 3.9 0 0 1 1.504.3c.484.2.91.481 1.277.848.371.372.657.793.856 1.278.199.48.297.98.297 1.5v6.547H-.754V3.926c0-.52.102-1.02.3-1.5.2-.485.485-.906.856-1.278A3.864 3.864 0 0 1 1.68.301C2.16.1 2.66 0 3.184 0zm0 0"/><path fill="#eb5849" d="M3.184 3.926h2.625v2.62H3.184zm0 0"/><path fill="#f6bc1b" d="M8.434 3.926h2.62v2.62h-2.62zm0 0"/><path fill="#85bb40" d="M13.68 3.926h2.625v2.62H13.68zm0 0"/><path fill="#b2b1b4" d="M34.676 53.672h2.62v2.617h-2.62zm0 0"/><path fill="#eb5849" d="M4.496 26.184h2.625V28.8H4.496zm0 0"/><path fill="#0093b9" d="M9.746 26.184h19.68V28.8H9.746zm0 0"/><path fill="#85bb40" d="M4.496 31.418h2.625v2.617H4.496zm0 0"/><path fill="#eb5849" d="M9.746 31.418H43.86v2.617H9.746zm0 0"/><path fill="#0093b9" d="M4.496 36.656h2.625v2.617H4.496zm0 0"/><path fill="#e3e4e2" d="M9.746 36.656h24.93v2.617H9.746zm0 0"/><path fill="#eb5849" d="M4.496 41.89h2.625v2.618H4.496zm0 0"/><path fill="#85bb40" d="M9.746 41.89h38.047v2.618H9.746zm0 0"/><path fill="#e3e4e2" d="m7.504 23.18-2.625-2.617a1.347 1.347 0 0 1-.383-.926c0-.176.035-.34.102-.5.066-.16.16-.305.28-.426l2.626-2.617 1.855 1.851-1.695 1.692 1.695 1.691zM19.855 23.18 18 21.328l1.7-1.691-1.7-1.692 1.855-1.851 2.625 2.617a1.282 1.282 0 0 1 .383.926 1.296 1.296 0 0 1-.383.925zM11.125 23.148l2.625-7.851 2.488.828-2.625 7.852zm0 0"/><path fill="#0093b9" d="M46.484 31.418h7.871v2.617h-7.87zm0 0"/><path fill="#eb5849" d="M50.418 41.89h2.625v2.618h-2.625zm0 0"/><path fill="#0093b9" d="M55.668 41.89h2.625v2.618h-2.625zm0 0"/><path fill="#85bb40" d="M32.05 26.184h2.626V28.8H32.05zm0 0"/><path fill="#fff" d="M61.371 13.434H43.453v27.023h24.164v-21.07zm0 0"/><path fill="#fae294" d="M60.77 15.887H45.344V40.14h19.734a2.535 2.535 0 0 0 1.77-.738c.234-.239.414-.508.539-.813.129-.309.191-.625.191-.957V20.168zm0 0"/><path fill="#fff" d="M68.531 36.262a2.135 2.135 0 0 1-.629 1.515 2.11 2.11 0 0 1-1.515.625c-.285 0-.559-.054-.82-.16a2.194 2.194 0 0 1-.696-.465 2.135 2.135 0 0 1 0-3.031c.203-.203.434-.36.695-.465.262-.11.536-.164.82-.164.286 0 .56.055.821.164.266.106.496.262.695.465.203.2.356.43.465.695.11.262.164.536.164.82zm0 0"/><g clip-path="url(#a)"><path fill="#7aa6c7" d="M70.797 34.89a.376.376 0 0 1-.379-.257 4.142 4.142 0 0 0-.656-1.121.388.388 0 0 1-.032-.453l.793-1.371-2.39-1.407-.79 1.371a.359.359 0 0 1-.413.196 4.178 4.178 0 0 0-1.36 0 .383.383 0 0 1-.414-.196l-.804-1.336-2.368 1.407.805 1.359a.38.38 0 0 1 0 .457 4.282 4.282 0 0 0-.629 1.121.37.37 0 0 1-.375.258h-1.61v2.754h1.583c.187-.004.312.082.375.258.164.402.383.777.656 1.117a.365.365 0 0 1 .035.453l-.789 1.36 2.383 1.378.789-1.37c.094-.161.23-.227.414-.196.453.07.906.07 1.36 0 .183-.031.32.035.414.195l.808 1.36 2.371-1.407-.804-1.36a.36.36 0 0 1 0-.456c.261-.344.472-.715.62-1.121a.376.376 0 0 1 .38-.258h1.585v-2.734zm-4.442 3.442a2.145 2.145 0 0 1-1.527-.633 2.134 2.134 0 0 1-.469-.703 2.126 2.126 0 0 1-.164-.824 2.145 2.145 0 0 1 .633-1.527 2.145 2.145 0 0 1 1.527-.633c.286 0 .563.054.825.164.265.11.5.265.703.469a2.145 2.145 0 0 1 .633 1.527c0 .285-.055.562-.164.824a2.158 2.158 0 0 1-1.996 1.336zm0 0"/></g><path fill="#e6cba5" d="m67.57 19.387-6.199-5.953v3.976c.004.262.055.516.156.758a1.963 1.963 0 0 0 1.074 1.078c.243.102.497.152.758.156zm0 0"/><path fill="#454c57" d="M66.383 38.805a2.53 2.53 0 0 1-2.352-1.57 2.459 2.459 0 0 1-.195-.973c0-.34.062-.664.195-.977.13-.312.313-.586.551-.824.238-.242.512-.426.824-.555a2.53 2.53 0 0 1 .977-.191.54.54 0 0 1 .394.164c.11.11.164.238.164.394a.54.54 0 0 1-.164.395.54.54 0 0 1-.394.164c-.192 0-.371.04-.547.11a1.443 1.443 0 0 0-.77.777 1.43 1.43 0 0 0 1.868 1.86c.175-.075.332-.177.464-.31a1.433 1.433 0 0 0 .418-1.008c0-.156.055-.288.164-.398a.534.534 0 0 1 .395-.164.54.54 0 0 1 .395.164c.109.11.164.242.164.399 0 .336-.067.66-.196.972a2.544 2.544 0 0 1-1.379 1.379c-.312.13-.64.192-.976.192zm0 0"/><g clip-path="url(#b)"><path fill="#454c57" d="M64.82 42.805a.561.561 0 0 1-.28-.075l-2.821-1.64a.555.555 0 0 1-.254-.324.574.574 0 0 1 .035-.41l.73-1.258a4.212 4.212 0 0 1-.355-.618h-1.453a.534.534 0 0 1-.395-.164.534.534 0 0 1-.164-.394v-3.297a.54.54 0 0 1 .164-.395.534.534 0 0 1 .395-.164h1.453c.098-.191.203-.379.32-.558l-.738-1.254a.544.544 0 0 1-.062-.426.547.547 0 0 1 .257-.344l2.801-1.68a.534.534 0 0 1 .422-.058c.148.04.266.125.344.258l.742 1.246a4.22 4.22 0 0 1 .77 0l.726-1.258a.547.547 0 0 1 .336-.265.58.58 0 0 1 .426.058l2.847 1.617a.54.54 0 0 1 .258.34.54.54 0 0 1-.054.426l-.73 1.266c.136.195.253.398.355.609h1.46a.54.54 0 0 1 .395.164.54.54 0 0 1 .164.395v3.293a.534.534 0 0 1-.164.394.54.54 0 0 1-.395.164h-1.457a4.73 4.73 0 0 1-.32.563l.742 1.25a.543.543 0 0 1 .059.425.547.547 0 0 1-.258.344l-2.797 1.68a.524.524 0 0 1-.418.058.52.52 0 0 1-.347-.257l-.739-1.25a4.22 4.22 0 0 1-.77 0l-.726 1.257a.545.545 0 0 1-.34.262.59.59 0 0 1-.164.02zm-2.07-2.403 1.863 1.075.633-1.122a.522.522 0 0 1 .559-.273c.398.07.793.07 1.187 0a.514.514 0 0 1 .559.27l.66 1.125 1.855-1.122-.644-1.085a.512.512 0 0 1 .043-.63c.234-.292.422-.613.562-.96a.515.515 0 0 1 .52-.352h1.246v-2.144h-1.262a.516.516 0 0 1-.523-.356 3.604 3.604 0 0 0-.559-.992.511.511 0 0 1-.043-.625l.63-1.094-1.88-1.074-.633 1.121a.516.516 0 0 1-.558.273 3.369 3.369 0 0 0-1.188 0 .514.514 0 0 1-.558-.269l-.668-1.102-1.848 1.118.645 1.086c.132.222.12.433-.04.632-.234.29-.421.606-.558.953a.522.522 0 0 1-.52.36h-1.25v2.12h1.262c.25 0 .426.118.52.352.136.36.32.692.558.997a.514.514 0 0 1 .078.625zm0 0"/></g><g clip-path="url(#c)"><path fill="#454c57" d="M62.398 41.016H43.453a.542.542 0 0 1-.398-.164.528.528 0 0 1-.164-.395V13.434a.54.54 0 0 1 .164-.395.542.542 0 0 1 .398-.164h17.91c.149 0 .278.055.383.156l6.258 5.946c.117.109.176.246.176.41v8.097a.54.54 0 0 1-.164.395.542.542 0 0 1-.399.164.54.54 0 0 1-.394-.164.54.54 0 0 1-.164-.395v-7.836l-5.899-5.652H44.012v25.902h18.386a.54.54 0 0 1 .395.164.54.54 0 0 1 .164.395c0 .156-.055.29-.164.395a.54.54 0 0 1-.395.164zm0 0"/></g><g clip-path="url(#d)"><path fill="#454c57" d="M67.617 19.945h-3.883a2.894 2.894 0 0 1-2.062-.86 2.894 2.894 0 0 1-.86-2.063v-3.588a.522.522 0 0 1 .348-.504.52.52 0 0 1 .61.113l6.234 5.934c.187.175.23.378.137.617a.52.52 0 0 1-.524.351zm-5.683-5.207v2.285c0 .239.043.47.136.688.09.223.223.418.39.586.169.168.364.3.587.39.219.094.45.137.687.137H66.2zm0 0"/></g><path fill="#454c57" d="M53.7 26.633a.505.505 0 0 1-.25-.063.525.525 0 0 1-.286-.332.545.545 0 0 1 .043-.433l3.063-5.922a.533.533 0 0 1 .324-.305.539.539 0 0 1 .445.031.535.535 0 0 1 .281.348c.043.156.024.3-.062.441l-3.059 5.934a.53.53 0 0 1-.5.3zM59.082 26.633c-.258.004-.434-.117-.527-.36a.525.525 0 0 1 .152-.62l2.863-2.54-2.863-2.543a.542.542 0 0 1-.18-.394.526.526 0 0 1 .153-.406.546.546 0 0 1 .394-.184.556.556 0 0 1 .406.152l3.333 2.953a.546.546 0 0 1 .187.422.533.533 0 0 1-.188.418l-3.332 2.961a.534.534 0 0 1-.398.14zM51.523 26.633a.546.546 0 0 1-.375-.14l-3.332-2.962a.53.53 0 0 1-.183-.418c0-.168.058-.308.183-.422l3.332-2.953a.532.532 0 0 1 .395-.12.54.54 0 0 1 .371.183.541.541 0 0 1 .145.39.557.557 0 0 1-.168.38l-2.86 2.542 2.86 2.54c.117.105.18.234.187.39a.542.542 0 0 1-.14.406.546.546 0 0 1-.415.184zM52.992 31.25H47.48a.54.54 0 0 1-.394-.164.54.54 0 0 1-.164-.395c0-.156.055-.285.164-.394a.54.54 0 0 1 .394-.164h5.512c.156 0 .29.055.399.164.109.11.164.238.164.394a.54.54 0 0 1-.164.395.542.542 0 0 1-.399.164zM56.477 31.25h-1.16a.54.54 0 0 1-.395-.164.54.54 0 0 1-.164-.395c0-.156.054-.285.164-.394a.54.54 0 0 1 .394-.164h1.16a.54.54 0 0 1 .395.164c.11.11.164.238.164.394a.54.54 0 0 1-.164.395.54.54 0 0 1-.394.164zM49.145 34.055h-1.68a.534.534 0 0 1-.395-.164.54.54 0 0 1-.164-.395c0-.156.055-.289.164-.398a.534.534 0 0 1 .395-.164h1.68a.54.54 0 0 1 .394.164c.11.109.164.242.164.398a.54.54 0 0 1-.164.395.54.54 0 0 1-.394.164zM57.95 34.055h-5.993a.54.54 0 0 1-.395-.164.54.54 0 0 1-.164-.395c0-.156.055-.289.164-.398a.54.54 0 0 1 .395-.164h5.992a.54.54 0 0 1 .395.164c.11.109.164.242.164.398a.54.54 0 0 1-.164.395.54.54 0 0 1-.395.164zM53.555 37.098h-5.922a.54.54 0 0 1-.395-.16.542.542 0 0 1-.164-.399.54.54 0 0 1 .164-.394.528.528 0 0 1 .395-.165h5.922a.54.54 0 0 1 .394.165.54.54 0 0 1 .164.394.552.552 0 0 1-.559.559zM57.414 37.098h-1.52a.555.555 0 0 1-.562-.559.54.54 0 0 1 .164-.394.542.542 0 0 1 .399-.165h1.52c.155 0 .288.055.398.165a.54.54 0 0 1 .164.394.555.555 0 0 1-.563.559zm0 0"/></svg>