<svg xmlns="http://www.w3.org/2000/svg" width="96" viewBox="0 0 72 60" height="80" version="1.0"><defs><clipPath id="a"><path d="M2.883 3.543h66.75V52H2.883zm0 0"/></clipPath></defs><path fill="#e7f2ff" d="M72.645 6.992a7.003 7.003 0 0 0-7-7.008H7.098c-3.868 0-7 3.137-7 7.008v45.973c0 3.87 3.132 7.012 7 7.012h58.547c3.867 0 7-3.141 7-7.012V6.992zm0 0" fill-rule="evenodd"/><path fill="#84c9f2" d="M.098 14.777h72.547V6.992a7.003 7.003 0 0 0-7-7.008H7.098c-3.868 0-7 3.137-7 7.008zm0 0" fill-rule="evenodd"/><path fill="#47556a" d="M26.176 4.223H10.633a3.16 3.16 0 0 0 0 6.32h15.543a3.16 3.16 0 0 0 0-6.32zm0 0" fill-rule="evenodd"/><path fill="#f5536b" d="M46.938 7.383c0 .418-.079.82-.239 1.207a3.133 3.133 0 0 1-1.71 1.71 3.127 3.127 0 0 1-2.415 0 3.133 3.133 0 0 1-1.707-1.71 3.127 3.127 0 0 1 0-2.418c.16-.387.387-.727.684-1.024a3.128 3.128 0 0 1 2.23-.925 3.144 3.144 0 0 1 2.234.926 3.128 3.128 0 0 1 .922 2.234zm0 0"/><path fill="#fed11d" d="M56.102 7.383a3.144 3.144 0 0 1-.926 2.234 3.077 3.077 0 0 1-1.024.684 3.127 3.127 0 0 1-2.414 0 3.133 3.133 0 0 1-1.71-1.711 3.123 3.123 0 0 1-.239-1.207 3.128 3.128 0 0 1 .922-2.235 3.144 3.144 0 0 1 2.234-.925 3.123 3.123 0 0 1 2.23.925 3.128 3.128 0 0 1 .927 2.235zm0 0"/><path fill="#8ac254" d="M65.266 7.383c0 .418-.082.82-.243 1.207a3.133 3.133 0 0 1-1.707 1.71 3.127 3.127 0 0 1-2.418 0 3.133 3.133 0 0 1-1.707-1.71 3.123 3.123 0 0 1-.238-1.207 3.128 3.128 0 0 1 .922-2.235 3.128 3.128 0 0 1 2.234-.925 3.123 3.123 0 0 1 2.23.925c.298.297.524.637.684 1.024.16.387.243.789.243 1.21zm0 0"/><path fill="#47556a" d="m36.527 26.16-5.906 19.457a2.921 2.921 0 1 0 5.59 1.703l5.91-19.46a2.926 2.926 0 0 0-1.945-3.65 2.925 2.925 0 0 0-3.649 1.95zM52.465 47.945l7.3-9.582c.801-1.047.801-2.5 0-3.547l-7.3-9.582a2.92 2.92 0 0 0-4.094-.55 2.926 2.926 0 0 0-.55 4.101l5.949 7.805-5.95 7.805a2.926 2.926 0 0 0 .551 4.101 2.92 2.92 0 0 0 4.094-.55zM24.922 44.395l-5.95-7.805 5.95-7.805a2.933 2.933 0 0 0-.55-4.101 2.925 2.925 0 0 0-4.099.55l-7.3 9.582c-.801 1.047-.801 2.5 0 3.547l7.3 9.582a2.925 2.925 0 0 0 4.098.551 2.933 2.933 0 0 0 .55-4.101zm0 0" fill-rule="evenodd"/><path fill="#47568c" d="M27.063 49.652h18.394c.152 0 .297.032.438.09a1.147 1.147 0 0 1 .71 1.063v9.222c0 .153-.03.301-.09.442a1.136 1.136 0 0 1-1.058.71H27.062a1.12 1.12 0 0 1-.437-.085 1.212 1.212 0 0 1-.375-.25 1.14 1.14 0 0 1-.336-.816v-9.223a1.14 1.14 0 0 1 .711-1.063c.14-.058.285-.09.438-.09zm0 0"/><path fill="#61729b" d="M22.465 58.875h27.59c.152 0 .297.027.437.086s.266.144.375.25c.106.11.192.234.25.375.055.14.086.289.086.441v4.614c0 .152-.031.296-.086.437a1.147 1.147 0 0 1-.625.625c-.14.059-.285.09-.437.09h-27.59c-.152 0-.297-.031-.438-.09a1.108 1.108 0 0 1-.375-.25 1.071 1.071 0 0 1-.25-.375 1.12 1.12 0 0 1-.086-.437v-4.614a1.14 1.14 0 0 1 .336-.816c.11-.106.23-.191.375-.25a1.12 1.12 0 0 1 .438-.086zm0 0"/><g clip-path="url(#a)"><path fill="#e9e9f3" d="M4.074 3.543h64.371a1.14 1.14 0 0 1 1.149 1.152v46.11a1.14 1.14 0 0 1-.336.816 1.14 1.14 0 0 1-.813.336H4.075a1.14 1.14 0 0 1-1.15-1.152V4.695a1.14 1.14 0 0 1 .337-.816c.105-.11.23-.192.37-.25.141-.059.29-.086.442-.086zm0 0"/></g><path fill="#4bb9ec" d="M8.672 8.152h32.187c.153 0 .297.032.438.09a1.147 1.147 0 0 1 .71 1.063V27.75a1.201 1.201 0 0 1-.336.816c-.108.106-.233.192-.374.25a1.12 1.12 0 0 1-.438.086H8.672a1.14 1.14 0 0 1-1.149-1.152V9.305a1.14 1.14 0 0 1 .707-1.063c.141-.058.29-.09.442-.09zm0 0"/><path fill="#f2f2fc" d="m19.777 22.844-3.265-9.828a1.137 1.137 0 0 0-.418-.575 1.124 1.124 0 0 0-.672-.218c-.25 0-.477.074-.676.218-.2.149-.34.34-.418.575l-3.265 9.828a1.146 1.146 0 0 0-.055.445 1.139 1.139 0 0 0 .394.793c.114.098.243.172.387.223a1.165 1.165 0 0 0 .879-.063c.137-.07.258-.16.355-.277.102-.117.176-.246.223-.39l.828-2.49h2.7l.824 2.49a1.168 1.168 0 0 0 .578.668c.136.066.281.109.433.116a1.146 1.146 0 0 0 1.23-1.07 1.08 1.08 0 0 0-.058-.445zm-4.941-4.063.582-1.754.582 1.754zM23.438 14.48c.468.04.91.165 1.332.372a3.758 3.758 0 0 1 2.094 3.375c0 .468-.083.925-.255 1.363a3.803 3.803 0 0 1-.73 1.18 3.813 3.813 0 0 1-1.11.832 3.687 3.687 0 0 1-1.331.37zm-1.149-2.32a1.14 1.14 0 0 0-1.062.711c-.059.14-.09.29-.09.441v9.829c0 .152.031.297.09.437a1.117 1.117 0 0 0 .62.625c.141.059.29.09.442.09h.816a6.01 6.01 0 0 0 2.313-.465 6.083 6.083 0 0 0 1.965-1.313c.281-.28.531-.59.75-.921.222-.328.41-.68.558-1.047.153-.367.27-.746.348-1.137.074-.39.113-.785.113-1.183 0-.399-.039-.793-.113-1.184a6.195 6.195 0 0 0-.906-2.188 6.045 6.045 0 0 0-.75-.921 6.083 6.083 0 0 0-3.098-1.66 6.319 6.319 0 0 0-1.18-.114zM37.652 15.77c0-.48-.09-.942-.273-1.383a3.583 3.583 0 0 0-.781-1.172 3.537 3.537 0 0 0-1.168-.785 3.612 3.612 0 0 0-2.754 0 3.538 3.538 0 0 0-1.168.785c-.34.336-.598.726-.781 1.172a3.559 3.559 0 0 0-.274 1.379c0 .48.09.941.274 1.382.183.442.441.832.78 1.172.337.34.727.598 1.169.782.441.183.898.277 1.379.277a1.288 1.288 0 0 1 1.2.805 1.285 1.285 0 0 1-.001 1 1.288 1.288 0 0 1-.703.703 1.28 1.28 0 0 1-.996 0 1.288 1.288 0 0 1-.801-1.203c0-.153-.031-.301-.09-.442a1.147 1.147 0 0 0-1.875-.375c-.105.11-.191.235-.25.375-.055.14-.086.29-.086.442 0 .476.09.937.274 1.378.183.446.445.836.78 1.172.337.34.727.602 1.169.786.441.183.898.273 1.379.273.476 0 .933-.09 1.375-.273a3.537 3.537 0 0 0 1.168-.786c.34-.336.597-.726.78-1.172.184-.44.274-.902.274-1.378 0-.48-.09-.942-.273-1.383a3.583 3.583 0 0 0-.781-1.172 3.527 3.527 0 0 0-1.168-.781 3.544 3.544 0 0 0-1.375-.278 1.296 1.296 0 0 1-1.301-1.3 1.282 1.282 0 0 1 .379-.922 1.32 1.32 0 0 1 .422-.286c.16-.066.328-.097.5-.097a1.277 1.277 0 0 1 .918.383c.12.12.215.261.28.422.067.16.102.324.102.5 0 .152.028.296.086.44.059.142.141.267.25.372a1.143 1.143 0 0 0 .813.34c.152 0 .297-.031.437-.09a1.147 1.147 0 0 0 .711-1.062zm0 0" fill-rule="evenodd"/><path fill="#4bb9ec" d="M17.867 35.82h4.598a1.14 1.14 0 0 1 1.148 1.153v9.222a1.14 1.14 0 0 1-.707 1.063c-.14.058-.289.09-.441.09h-4.598a1.158 1.158 0 0 1-1.062-.711 1.14 1.14 0 0 1-.086-.442v-9.222a1.14 1.14 0 0 1 .336-.817c.11-.105.23-.191.37-.25.145-.058.29-.086.442-.086zm0 0"/><path fill="#ffcebf" d="M8.672 40.43h4.598a1.143 1.143 0 0 1 .812.34c.11.105.191.23.25.37.059.145.086.29.086.442v4.613a1.14 1.14 0 0 1-.707 1.063c-.14.058-.29.09-.441.09H8.672a1.143 1.143 0 0 1-.813-.34 1.14 1.14 0 0 1-.336-.813v-4.613c0-.152.028-.297.086-.441.059-.141.141-.266.25-.371a1.143 1.143 0 0 1 .813-.34zm0 0"/><path fill="#fdbf00" d="M27.063 33.516h4.597a1.14 1.14 0 0 1 1.063.71c.058.141.09.29.09.442v11.527a1.143 1.143 0 0 1-.34.813 1.143 1.143 0 0 1-.813.34h-4.597c-.153 0-.297-.032-.438-.09a1.147 1.147 0 0 1-.71-1.063V34.668a1.14 1.14 0 0 1 .335-.816 1.147 1.147 0 0 1 .813-.336zm0 0"/><path fill="#f03800" d="M36.258 31.207h4.601c.153 0 .297.031.438.09a1.117 1.117 0 0 1 .621.625c.059.14.09.285.09.437v13.836c0 .153-.031.301-.09.442a1.14 1.14 0 0 1-.621.62c-.14.06-.285.09-.438.09h-4.601c-.153 0-.297-.03-.438-.09a1.147 1.147 0 0 1-.71-1.062V32.36c0-.152.03-.297.09-.437.054-.145.14-.27.245-.375.11-.11.235-.192.375-.25.14-.059.285-.09.438-.09zM50.055 8.152h13.793a1.143 1.143 0 0 1 .812.34 1.14 1.14 0 0 1 .336.813V27.75a1.14 1.14 0 0 1-.336.816c-.11.106-.23.192-.37.25a1.14 1.14 0 0 1-.442.086H50.055a1.14 1.14 0 0 1-1.063-.71c-.058-.141-.09-.29-.09-.442V9.305a1.143 1.143 0 0 1 .34-.813 1.143 1.143 0 0 1 .813-.34zm0 0"/><path fill="#a3a3d1" d="M50.055 33.516h13.793a1.143 1.143 0 0 0 .812-.34c.11-.11.192-.23.25-.375.059-.14.086-.285.086-.442a1.12 1.12 0 0 0-.086-.437 1.071 1.071 0 0 0-.25-.375 1.143 1.143 0 0 0-.813-.34H50.056a1.143 1.143 0 0 0-.813.34c-.11.105-.191.23-.25.375a1.124 1.124 0 0 0 0 .879c.059.144.14.265.25.375a1.143 1.143 0 0 0 .813.34zM50.055 38.125h13.793c.152 0 .3-.027.441-.086a1.147 1.147 0 0 0 .707-1.066 1.14 1.14 0 0 0-.336-.817 1.195 1.195 0 0 0-.37-.25 1.14 1.14 0 0 0-.442-.086H50.055a1.14 1.14 0 0 0-1.063.711 1.143 1.143 0 0 0 .25 1.258 1.14 1.14 0 0 0 .813.336zM50.055 42.734h13.793a1.14 1.14 0 0 0 1.148-1.152c0-.152-.027-.297-.086-.441a1.092 1.092 0 0 0-.25-.371 1.143 1.143 0 0 0-.813-.34H50.056a1.143 1.143 0 0 0-.813.34 1.158 1.158 0 0 0-.34.813c0 .151.032.3.09.44a1.147 1.147 0 0 0 1.063.711zM50.055 47.348h13.793a1.143 1.143 0 0 0 .812-.34 1.14 1.14 0 0 0 .336-.813 1.14 1.14 0 0 0-.336-.816 1.131 1.131 0 0 0-.812-.336H50.055a1.14 1.14 0 0 0-1.063.71 1.143 1.143 0 0 0 0 .884c.059.14.14.265.25.37a1.143 1.143 0 0 0 .813.34zm0 0" fill-rule="evenodd"/></svg>